<svg xmlns="http://www.w3.org/2000/svg" viewBox="0 0 128 128">
  <defs>
    <radialGradient id="a" cx="63.819" cy="1135.3" r="65.5" gradientTransform="matrix(1 0 0 -.977 0 1165)" gradientUnits="userSpaceOnUse">
      <stop offset="0" stop-color="#AEB2D5"/>
      <stop offset=".3" stop-color="#AEB2D5"/>
      <stop offset=".75" stop-color="#484C89"/>
      <stop offset="1" stop-color="#484C89"/>
    </radialGradient>
  </defs>
  <ellipse cx="63.8" cy="64" fill="url(#a)" rx="62.8" ry="62"/>
  <ellipse cx="63.8" cy="64" fill="#777BB3" rx="55.1" ry="53.7"/>
  <path fill="#FFF" d="M34 49.8c-.5 2.5-2.2 4.7-4.5 5.9-1.9 1-4.1 1.5-6.3 1.5H18l2.5-12.2h5.3c2.2 0 4.4.4 6.4 1.4 2.4 1.2 3.7 3.3 3.2 5.7h-.4zm7.4-1.5c1-4.5-1-8.5-4.9-11-3.7-2.4-8.3-3.5-12.9-3.5H7.1L0 76.2h9.6l2.6-13h6.7c3.2 0 6.3-.5 9.3-1.7 5.5-2.2 9.5-7 10.7-12.9l.5-1.5zm39.9 1.5c-.5 2.5-2.2 4.7-4.5 5.9-1.9 1-4.1 1.5-6.3 1.5h-5.2l2.5-12.2h5.3c2.2 0 4.4.4 6.4 1.4 2.4 1.2 3.7 3.3 3.2 5.7l-1.4.7zm7.4-1.5c1-4.5-1-8.5-4.9-11-3.7-2.4-8.3-3.5-12.9-3.5H54.4l-7.1 33.4h9.6l2.6-13h6.7c3.2 0 6.3-.5 9.3-1.7 5.5-2.2 9.5-7 10.7-12.9l.5-1.5h.6zm31.5 11.4c-1.5 7.2-7.3 12.5-14.6 13.4-1.6.2-3.2.3-4.8.3h-8.1l3.6-17.4H89l-5.9 28.1h9.7l1.5-7.3h7.9c1.9 0 3.8-.1 5.6-.4 8.2-1.2 15.2-7.2 17.4-15.3l.8-3.9c1-4.6-.5-9-3.9-12.1s-8.1-4.8-12.7-4.8H92.2l-6.6 31.5h9.6l3.6-17.4h6.3c2 0 4 .6 5.6 1.8 1.3 1.1 2 2.6 1.8 4.2l-.7 3.3z"/>
</svg>
