<svg xmlns="http://www.w3.org/2000/svg" viewBox="0 0 128 128">
  <path fill="#77bc1f" d="M116.452 6.643a59.104 59.104 0 0 1-6.837 12.136A64.249 64.249 0 0 0 64.205-.026C28.984-.026 0 28.982 0 64.242a64.316 64.316 0 0 0 19.945 46.562l2.368 2.1a64.22 64.22 0 0 0 41.358 15.122c33.487 0 61.637-26.24 64.021-59.683 1.751-16.371-3.051-37.077-11.24-61.7zM29.067 111.17a5.5 5.5 0 0 1-4.453 2.307c-.461 0-.922-.061-1.356-.184a3.59 3.59 0 0 1-1.74-.947c-.87-.87-1.337-2.079-1.289-3.348a5.479 5.479 0 0 1 1.289-3.348l.512-.512a50.025 50.025 0 0 1-4.03-6.837l-1.038 1.038c-.947.947-2.2 1.47-3.508 1.47s-2.561-.523-3.508-1.47c-1.93-1.93-1.93-5.086 0-7.016l1.125-1.125a49.695 49.695 0 0 1-3.681-7.407l-1.356 1.356c-.947.947-2.2 1.47-3.508 1.47s-2.561-.523-3.508-1.47c-1.93-1.93-1.93-5.086 0-7.016l1.644-1.644c-2.307-6.2-3.571-12.9-3.571-19.95C.026 35.019 28.984 6.06 64.205 6.06a58.165 58.165 0 0 1 42.761 18.56c-29.609 1.932-56.452 18.034-68.79 43.496a2.013 2.013 0 0 0 1.125 2.632c.869.261 1.818-.11 2.235-.921 11.653-24.113 37.084-39.74 64.11-41.13a57.824 57.824 0 0 1 4.003 21.238c0 15.807-6.326 30.118-16.544 40.548-11.224 11.413-26.794 18.484-44.039 18.484a57.975 57.975 0 0 1-19.999-3.57z"/>
</svg>
